ISO-10303-21;
HEADER;
/* Generated by software containing ST-Developer
 * from STEP Tools, Inc. (www.steptools.com) 
 */

FILE_DESCRIPTION(
/* description */ (''),
/* implementation_level */ '2;1');

FILE_NAME(
/* name */ 'tempcut_ring.step',
/* time_stamp */ '2026-08-17T23:02:52-04:00',
/* author */ (''),
/* organization */ (''),
/* preprocessor_version */ 'ST-DEVELOPER v20.1',
/* originating_system */ 'Autodesk Translation Framework v15.8.0.0',
/* authorisation */ '');

FILE_SCHEMA (('AUTOMOTIVE_DESIGN { 1 0 10303 214 3 1 1 }'));
ENDSEC;

DATA;
#10=MECHANICAL_DESIGN_GEOMETRIC_PRESENTATION_REPRESENTATION('',(#17,#18,
#19,#20),#920);
#11=SHAPE_REPRESENTATION_RELATIONSHIP('SRR','None',#930,#12);
#12=ADVANCED_BREP_SHAPE_REPRESENTATION('',(#21,#22,#23,#24),#919);
#13=FACE_BOUND('',#86,.T.);
#14=FACE_BOUND('',#89,.T.);
#15=FACE_BOUND('',#104,.T.);
#16=FACE_BOUND('',#107,.T.);
#17=STYLED_ITEM('',(#939),#21);
#18=STYLED_ITEM('',(#939),#22);
#19=STYLED_ITEM('',(#939),#23);
#20=STYLED_ITEM('',(#939),#24);
#21=MANIFOLD_SOLID_BREP('Body1',#553);
#22=MANIFOLD_SOLID_BREP('Body2',#554);
#23=MANIFOLD_SOLID_BREP('Body3',#555);
#24=MANIFOLD_SOLID_BREP('Body4',#556);
#25=CYLINDRICAL_SURFACE('',#575,1.98877254306677);
#26=CYLINDRICAL_SURFACE('',#577,2.06751270054708);
#27=CYLINDRICAL_SURFACE('',#590,2.06751270054708);
#28=CYLINDRICAL_SURFACE('',#595,1.98877254306677);
#29=CYLINDRICAL_SURFACE('',#605,2.06751270054708);
#30=CYLINDRICAL_SURFACE('',#609,2.06751270054708);
#31=CIRCLE('',#573,2.06751270054708);
#32=CIRCLE('',#574,1.98877254306677);
#33=CIRCLE('',#576,1.98877254306677);
#34=CIRCLE('',#578,2.06751270054708);
#35=CIRCLE('',#591,2.06751270054708);
#36=CIRCLE('',#592,2.06751270054708);
#37=CIRCLE('',#594,1.98877254306677);
#38=CIRCLE('',#596,1.98877254306677);
#39=CIRCLE('',#606,2.06751270054708);
#40=CIRCLE('',#607,2.06751270054708);
#41=CIRCLE('',#610,2.06751270054708);
#42=CIRCLE('',#611,2.06751270054708);
#43=FACE_OUTER_BOUND('',#75,.T.);
#44=FACE_OUTER_BOUND('',#76,.T.);
#45=FACE_OUTER_BOUND('',#77,.T.);
#46=FACE_OUTER_BOUND('',#78,.T.);
#47=FACE_OUTER_BOUND('',#79,.T.);
#48=FACE_OUTER_BOUND('',#80,.T.);
#49=FACE_OUTER_BOUND('',#81,.T.);
#50=FACE_OUTER_BOUND('',#82,.T.);
#51=FACE_OUTER_BOUND('',#83,.T.);
#52=FACE_OUTER_BOUND('',#84,.T.);
#53=FACE_OUTER_BOUND('',#85,.T.);
#54=FACE_OUTER_BOUND('',#87,.T.);
#55=FACE_OUTER_BOUND('',#88,.T.);
#56=FACE_OUTER_BOUND('',#90,.T.);
#57=FACE_OUTER_BOUND('',#91,.T.);
#58=FACE_OUTER_BOUND('',#92,.T.);
#59=FACE_OUTER_BOUND('',#93,.T.);
#60=FACE_OUTER_BOUND('',#94,.T.);
#61=FACE_OUTER_BOUND('',#95,.T.);
#62=FACE_OUTER_BOUND('',#96,.T.);
#63=FACE_OUTER_BOUND('',#97,.T.);
#64=FACE_OUTER_BOUND('',#98,.T.);
#65=FACE_OUTER_BOUND('',#99,.T.);
#66=FACE_OUTER_BOUND('',#100,.T.);
#67=FACE_OUTER_BOUND('',#101,.T.);
#68=FACE_OUTER_BOUND('',#102,.T.);
#69=FACE_OUTER_BOUND('',#103,.T.);
#70=FACE_OUTER_BOUND('',#105,.T.);
#71=FACE_OUTER_BOUND('',#106,.T.);
#72=FACE_OUTER_BOUND('',#108,.T.);
#73=FACE_OUTER_BOUND('',#109,.T.);
#74=FACE_OUTER_BOUND('',#110,.T.);
#75=EDGE_LOOP('',(#351,#352,#353,#354));
#76=EDGE_LOOP('',(#355,#356,#357,#358));
#77=EDGE_LOOP('',(#359,#360,#361,#362));
#78=EDGE_LOOP('',(#363,#364,#365,#366));
#79=EDGE_LOOP('',(#367,#368,#369,#370));
#80=EDGE_LOOP('',(#371,#372,#373,#374));
#81=EDGE_LOOP('',(#375,#376,#377,#378));
#82=EDGE_LOOP('',(#379,#380,#381,#382));
#83=EDGE_LOOP('',(#383,#384,#385,#386));
#84=EDGE_LOOP('',(#387,#388,#389,#390));
#85=EDGE_LOOP('',(#391,#392,#393,#394));
#86=EDGE_LOOP('',(#395,#396,#397,#398));
#87=EDGE_LOOP('',(#399,#400,#401,#402));
#88=EDGE_LOOP('',(#403,#404,#405,#406));
#89=EDGE_LOOP('',(#407,#408,#409,#410));
#90=EDGE_LOOP('',(#411,#412,#413,#414));
#91=EDGE_LOOP('',(#415,#416,#417,#418));
#92=EDGE_LOOP('',(#419,#420,#421,#422));
#93=EDGE_LOOP('',(#423,#424,#425,#426));
#94=EDGE_LOOP('',(#427,#428,#429,#430));
#95=EDGE_LOOP('',(#431,#432,#433,#434));
#96=EDGE_LOOP('',(#435,#436,#437,#438));
#97=EDGE_LOOP('',(#439,#440,#441,#442));
#98=EDGE_LOOP('',(#443,#444,#445,#446));
#99=EDGE_LOOP('',(#447,#448,#449,#450));
#100=EDGE_LOOP('',(#451,#452,#453,#454));
#101=EDGE_LOOP('',(#455,#456,#457,#458));
#102=EDGE_LOOP('',(#459,#460,#461,#462));
#103=EDGE_LOOP('',(#463,#464,#465,#466));
#104=EDGE_LOOP('',(#467,#468,#469,#470));
#105=EDGE_LOOP('',(#471,#472,#473,#474));
#106=EDGE_LOOP('',(#475,#476,#477,#478));
#107=EDGE_LOOP('',(#479,#480,#481,#482));
#108=EDGE_LOOP('',(#483,#484,#485,#486));
#109=EDGE_LOOP('',(#487,#488,#489,#490));
#110=EDGE_LOOP('',(#491,#492,#493,#494));
#111=LINE('',#768,#171);
#112=LINE('',#770,#172);
#113=LINE('',#772,#173);
#114=LINE('',#773,#174);
#115=LINE('',#777,#175);
#116=LINE('',#779,#176);
#117=LINE('',#781,#177);
#118=LINE('',#782,#178);
#119=LINE('',#794,#179);
#120=LINE('',#796,#180);
#121=LINE('',#798,#181);
#122=LINE('',#799,#182);
#123=LINE('',#802,#183);
#124=LINE('',#804,#184);
#125=LINE('',#805,#185);
#126=LINE('',#808,#186);
#127=LINE('',#810,#187);
#128=LINE('',#811,#188);
#129=LINE('',#813,#189);
#130=LINE('',#814,#190);
#131=LINE('',#818,#191);
#132=LINE('',#820,#192);
#133=LINE('',#822,#193);
#134=LINE('',#823,#194);
#135=LINE('',#826,#195);
#136=LINE('',#828,#196);
#137=LINE('',#829,#197);
#138=LINE('',#832,#198);
#139=LINE('',#834,#199);
#140=LINE('',#835,#200);
#141=LINE('',#837,#201);
#142=LINE('',#838,#202);
#143=LINE('',#844,#203);
#144=LINE('',#848,#204);
#145=LINE('',#852,#205);
#146=LINE('',#855,#206);
#147=LINE('',#858,#207);
#148=LINE('',#861,#208);
#149=LINE('',#863,#209);
#150=LINE('',#864,#210);
#151=LINE('',#870,#211);
#152=LINE('',#872,#212);
#153=LINE('',#874,#213);
#154=LINE('',#875,#214);
#155=LINE('',#878,#215);
#156=LINE('',#880,#216);
#157=LINE('',#881,#217);
#158=LINE('',#884,#218);
#159=LINE('',#886,#219);
#160=LINE('',#887,#220);
#161=LINE('',#889,#221);
#162=LINE('',#890,#222);
#163=LINE('',#894,#223);
#164=LINE('',#896,#224);
#165=LINE('',#898,#225);
#166=LINE('',#899,#226);
#167=LINE('',#905,#227);
#168=LINE('',#908,#228);
#169=LINE('',#910,#229);
#170=LINE('',#911,#230);
#171=VECTOR('',#618,0.393700787401575);
#172=VECTOR('',#619,0.393700787401575);
#173=VECTOR('',#620,0.393700787401575);
#174=VECTOR('',#621,0.393700787401575);
#175=VECTOR('',#624,0.393700787401575);
#176=VECTOR('',#625,0.393700787401575);
#177=VECTOR('',#626,0.393700787401575);
#178=VECTOR('',#627,0.393700787401575);
#179=VECTOR('',#646,0.393700787401575);
#180=VECTOR('',#647,0.393700787401575);
#181=VECTOR('',#648,0.393700787401575);
#182=VECTOR('',#649,0.393700787401575);
#183=VECTOR('',#652,0.393700787401575);
#184=VECTOR('',#653,0.393700787401575);
#185=VECTOR('',#654,0.393700787401575);
#186=VECTOR('',#657,0.393700787401575);
#187=VECTOR('',#658,0.393700787401575);
#188=VECTOR('',#659,0.393700787401575);
#189=VECTOR('',#662,0.393700787401575);
#190=VECTOR('',#663,0.393700787401575);
#191=VECTOR('',#666,0.393700787401575);
#192=VECTOR('',#667,0.393700787401575);
#193=VECTOR('',#668,0.393700787401575);
#194=VECTOR('',#669,0.393700787401575);
#195=VECTOR('',#672,0.393700787401575);
#196=VECTOR('',#673,0.393700787401575);
#197=VECTOR('',#674,0.393700787401575);
#198=VECTOR('',#677,0.393700787401575);
#199=VECTOR('',#678,0.393700787401575);
#200=VECTOR('',#679,0.393700787401575);
#201=VECTOR('',#682,0.393700787401575);
#202=VECTOR('',#683,0.393700787401575);
#203=VECTOR('',#690,0.393700787401575);
#204=VECTOR('',#693,0.393700787401575);
#205=VECTOR('',#698,0.393700787401575);
#206=VECTOR('',#701,0.393700787401575);
#207=VECTOR('',#704,0.393700787401575);
#208=VECTOR('',#707,0.393700787401575);
#209=VECTOR('',#710,0.393700787401575);
#210=VECTOR('',#711,0.393700787401575);
#211=VECTOR('',#718,0.393700787401575);
#212=VECTOR('',#719,0.393700787401575);
#213=VECTOR('',#720,0.393700787401575);
#214=VECTOR('',#721,0.393700787401575);
#215=VECTOR('',#724,0.393700787401575);
#216=VECTOR('',#725,0.393700787401575);
#217=VECTOR('',#726,0.393700787401575);
#218=VECTOR('',#729,0.393700787401575);
#219=VECTOR('',#730,0.393700787401575);
#220=VECTOR('',#731,0.393700787401575);
#221=VECTOR('',#734,0.393700787401575);
#222=VECTOR('',#735,0.393700787401575);
#223=VECTOR('',#738,0.393700787401575);
#224=VECTOR('',#739,0.393700787401575);
#225=VECTOR('',#740,0.393700787401575);
#226=VECTOR('',#741,0.393700787401575);
#227=VECTOR('',#748,0.393700787401575);
#228=VECTOR('',#751,0.393700787401575);
#229=VECTOR('',#752,0.393700787401575);
#230=VECTOR('',#753,0.393700787401575);
#231=VERTEX_POINT('',#766);
#232=VERTEX_POINT('',#767);
#233=VERTEX_POINT('',#769);
#234=VERTEX_POINT('',#771);
#235=VERTEX_POINT('',#775);
#236=VERTEX_POINT('',#776);
#237=VERTEX_POINT('',#778);
#238=VERTEX_POINT('',#780);
#239=VERTEX_POINT('',#792);
#240=VERTEX_POINT('',#793);
#241=VERTEX_POINT('',#795);
#242=VERTEX_POINT('',#797);
#243=VERTEX_POINT('',#801);
#244=VERTEX_POINT('',#803);
#245=VERTEX_POINT('',#807);
#246=VERTEX_POINT('',#809);
#247=VERTEX_POINT('',#816);
#248=VERTEX_POINT('',#817);
#249=VERTEX_POINT('',#819);
#250=VERTEX_POINT('',#821);
#251=VERTEX_POINT('',#825);
#252=VERTEX_POINT('',#827);
#253=VERTEX_POINT('',#831);
#254=VERTEX_POINT('',#833);
#255=VERTEX_POINT('',#842);
#256=VERTEX_POINT('',#843);
#257=VERTEX_POINT('',#845);
#258=VERTEX_POINT('',#847);
#259=VERTEX_POINT('',#851);
#260=VERTEX_POINT('',#853);
#261=VERTEX_POINT('',#857);
#262=VERTEX_POINT('',#859);
#263=VERTEX_POINT('',#868);
#264=VERTEX_POINT('',#869);
#265=VERTEX_POINT('',#871);
#266=VERTEX_POINT('',#873);
#267=VERTEX_POINT('',#877);
#268=VERTEX_POINT('',#879);
#269=VERTEX_POINT('',#883);
#270=VERTEX_POINT('',#885);
#271=VERTEX_POINT('',#892);
#272=VERTEX_POINT('',#893);
#273=VERTEX_POINT('',#895);
#274=VERTEX_POINT('',#897);
#275=VERTEX_POINT('',#901);
#276=VERTEX_POINT('',#903);
#277=VERTEX_POINT('',#907);
#278=VERTEX_POINT('',#909);
#279=EDGE_CURVE('',#231,#232,#111,.T.);
#280=EDGE_CURVE('',#233,#231,#112,.T.);
#281=EDGE_CURVE('',#234,#233,#113,.T.);
#282=EDGE_CURVE('',#232,#234,#114,.T.);
#283=EDGE_CURVE('',#235,#236,#115,.T.);
#284=EDGE_CURVE('',#237,#235,#116,.T.);
#285=EDGE_CURVE('',#238,#237,#117,.T.);
#286=EDGE_CURVE('',#236,#238,#118,.T.);
#287=EDGE_CURVE('',#238,#233,#31,.T.);
#288=EDGE_CURVE('',#231,#236,#32,.T.);
#289=EDGE_CURVE('',#232,#235,#33,.T.);
#290=EDGE_CURVE('',#237,#234,#34,.T.);
#291=EDGE_CURVE('',#239,#240,#119,.T.);
#292=EDGE_CURVE('',#241,#239,#120,.T.);
#293=EDGE_CURVE('',#242,#241,#121,.T.);
#294=EDGE_CURVE('',#242,#240,#122,.T.);
#295=EDGE_CURVE('',#240,#243,#123,.T.);
#296=EDGE_CURVE('',#244,#242,#124,.T.);
#297=EDGE_CURVE('',#244,#243,#125,.T.);
#298=EDGE_CURVE('',#243,#245,#126,.T.);
#299=EDGE_CURVE('',#246,#244,#127,.T.);
#300=EDGE_CURVE('',#246,#245,#128,.T.);
#301=EDGE_CURVE('',#245,#239,#129,.T.);
#302=EDGE_CURVE('',#241,#246,#130,.T.);
#303=EDGE_CURVE('',#247,#248,#131,.T.);
#304=EDGE_CURVE('',#248,#249,#132,.T.);
#305=EDGE_CURVE('',#250,#249,#133,.T.);
#306=EDGE_CURVE('',#247,#250,#134,.T.);
#307=EDGE_CURVE('',#251,#247,#135,.T.);
#308=EDGE_CURVE('',#252,#250,#136,.T.);
#309=EDGE_CURVE('',#251,#252,#137,.T.);
#310=EDGE_CURVE('',#253,#251,#138,.T.);
#311=EDGE_CURVE('',#254,#252,#139,.T.);
#312=EDGE_CURVE('',#253,#254,#140,.T.);
#313=EDGE_CURVE('',#248,#253,#141,.T.);
#314=EDGE_CURVE('',#249,#254,#142,.T.);
#315=EDGE_CURVE('',#255,#256,#143,.T.);
#316=EDGE_CURVE('',#257,#256,#35,.T.);
#317=EDGE_CURVE('',#257,#258,#144,.T.);
#318=EDGE_CURVE('',#258,#255,#36,.T.);
#319=EDGE_CURVE('',#256,#259,#145,.T.);
#320=EDGE_CURVE('',#259,#260,#37,.T.);
#321=EDGE_CURVE('',#260,#257,#146,.T.);
#322=EDGE_CURVE('',#259,#261,#147,.T.);
#323=EDGE_CURVE('',#261,#262,#38,.T.);
#324=EDGE_CURVE('',#262,#260,#148,.T.);
#325=EDGE_CURVE('',#261,#255,#149,.T.);
#326=EDGE_CURVE('',#258,#262,#150,.T.);
#327=EDGE_CURVE('',#263,#264,#151,.T.);
#328=EDGE_CURVE('',#265,#263,#152,.T.);
#329=EDGE_CURVE('',#266,#265,#153,.T.);
#330=EDGE_CURVE('',#266,#264,#154,.T.);
#331=EDGE_CURVE('',#264,#267,#155,.T.);
#332=EDGE_CURVE('',#268,#266,#156,.T.);
#333=EDGE_CURVE('',#268,#267,#157,.T.);
#334=EDGE_CURVE('',#267,#269,#158,.T.);
#335=EDGE_CURVE('',#270,#268,#159,.T.);
#336=EDGE_CURVE('',#270,#269,#160,.T.);
#337=EDGE_CURVE('',#269,#263,#161,.T.);
#338=EDGE_CURVE('',#265,#270,#162,.T.);
#339=EDGE_CURVE('',#271,#272,#163,.T.);
#340=EDGE_CURVE('',#272,#273,#164,.T.);
#341=EDGE_CURVE('',#274,#273,#165,.T.);
#342=EDGE_CURVE('',#271,#274,#166,.T.);
#343=EDGE_CURVE('',#275,#271,#39,.T.);
#344=EDGE_CURVE('',#276,#274,#40,.T.);
#345=EDGE_CURVE('',#275,#276,#167,.T.);
#346=EDGE_CURVE('',#277,#275,#168,.T.);
#347=EDGE_CURVE('',#278,#276,#169,.T.);
#348=EDGE_CURVE('',#277,#278,#170,.T.);
#349=EDGE_CURVE('',#272,#277,#41,.T.);
#350=EDGE_CURVE('',#273,#278,#42,.T.);
#351=ORIENTED_EDGE('',*,*,#279,.F.);
#352=ORIENTED_EDGE('',*,*,#280,.F.);
#353=ORIENTED_EDGE('',*,*,#281,.F.);
#354=ORIENTED_EDGE('',*,*,#282,.F.);
#355=ORIENTED_EDGE('',*,*,#283,.F.);
#356=ORIENTED_EDGE('',*,*,#284,.F.);
#357=ORIENTED_EDGE('',*,*,#285,.F.);
#358=ORIENTED_EDGE('',*,*,#286,.F.);
#359=ORIENTED_EDGE('',*,*,#286,.T.);
#360=ORIENTED_EDGE('',*,*,#287,.T.);
#361=ORIENTED_EDGE('',*,*,#280,.T.);
#362=ORIENTED_EDGE('',*,*,#288,.T.);
#363=ORIENTED_EDGE('',*,*,#283,.T.);
#364=ORIENTED_EDGE('',*,*,#288,.F.);
#365=ORIENTED_EDGE('',*,*,#279,.T.);
#366=ORIENTED_EDGE('',*,*,#289,.T.);
#367=ORIENTED_EDGE('',*,*,#285,.T.);
#368=ORIENTED_EDGE('',*,*,#290,.T.);
#369=ORIENTED_EDGE('',*,*,#281,.T.);
#370=ORIENTED_EDGE('',*,*,#287,.F.);
#371=ORIENTED_EDGE('',*,*,#284,.T.);
#372=ORIENTED_EDGE('',*,*,#289,.F.);
#373=ORIENTED_EDGE('',*,*,#282,.T.);
#374=ORIENTED_EDGE('',*,*,#290,.F.);
#375=ORIENTED_EDGE('',*,*,#291,.F.);
#376=ORIENTED_EDGE('',*,*,#292,.F.);
#377=ORIENTED_EDGE('',*,*,#293,.F.);
#378=ORIENTED_EDGE('',*,*,#294,.T.);
#379=ORIENTED_EDGE('',*,*,#295,.F.);
#380=ORIENTED_EDGE('',*,*,#294,.F.);
#381=ORIENTED_EDGE('',*,*,#296,.F.);
#382=ORIENTED_EDGE('',*,*,#297,.T.);
#383=ORIENTED_EDGE('',*,*,#298,.F.);
#384=ORIENTED_EDGE('',*,*,#297,.F.);
#385=ORIENTED_EDGE('',*,*,#299,.F.);
#386=ORIENTED_EDGE('',*,*,#300,.T.);
#387=ORIENTED_EDGE('',*,*,#301,.F.);
#388=ORIENTED_EDGE('',*,*,#300,.F.);
#389=ORIENTED_EDGE('',*,*,#302,.F.);
#390=ORIENTED_EDGE('',*,*,#292,.T.);
#391=ORIENTED_EDGE('',*,*,#303,.T.);
#392=ORIENTED_EDGE('',*,*,#304,.T.);
#393=ORIENTED_EDGE('',*,*,#305,.F.);
#394=ORIENTED_EDGE('',*,*,#306,.F.);
#395=ORIENTED_EDGE('',*,*,#298,.T.);
#396=ORIENTED_EDGE('',*,*,#301,.T.);
#397=ORIENTED_EDGE('',*,*,#291,.T.);
#398=ORIENTED_EDGE('',*,*,#295,.T.);
#399=ORIENTED_EDGE('',*,*,#307,.T.);
#400=ORIENTED_EDGE('',*,*,#306,.T.);
#401=ORIENTED_EDGE('',*,*,#308,.F.);
#402=ORIENTED_EDGE('',*,*,#309,.F.);
#403=ORIENTED_EDGE('',*,*,#310,.T.);
#404=ORIENTED_EDGE('',*,*,#309,.T.);
#405=ORIENTED_EDGE('',*,*,#311,.F.);
#406=ORIENTED_EDGE('',*,*,#312,.F.);
#407=ORIENTED_EDGE('',*,*,#299,.T.);
#408=ORIENTED_EDGE('',*,*,#296,.T.);
#409=ORIENTED_EDGE('',*,*,#293,.T.);
#410=ORIENTED_EDGE('',*,*,#302,.T.);
#411=ORIENTED_EDGE('',*,*,#313,.T.);
#412=ORIENTED_EDGE('',*,*,#312,.T.);
#413=ORIENTED_EDGE('',*,*,#314,.F.);
#414=ORIENTED_EDGE('',*,*,#304,.F.);
#415=ORIENTED_EDGE('',*,*,#314,.T.);
#416=ORIENTED_EDGE('',*,*,#311,.T.);
#417=ORIENTED_EDGE('',*,*,#308,.T.);
#418=ORIENTED_EDGE('',*,*,#305,.T.);
#419=ORIENTED_EDGE('',*,*,#313,.F.);
#420=ORIENTED_EDGE('',*,*,#303,.F.);
#421=ORIENTED_EDGE('',*,*,#307,.F.);
#422=ORIENTED_EDGE('',*,*,#310,.F.);
#423=ORIENTED_EDGE('',*,*,#315,.T.);
#424=ORIENTED_EDGE('',*,*,#316,.F.);
#425=ORIENTED_EDGE('',*,*,#317,.T.);
#426=ORIENTED_EDGE('',*,*,#318,.T.);
#427=ORIENTED_EDGE('',*,*,#319,.T.);
#428=ORIENTED_EDGE('',*,*,#320,.T.);
#429=ORIENTED_EDGE('',*,*,#321,.T.);
#430=ORIENTED_EDGE('',*,*,#316,.T.);
#431=ORIENTED_EDGE('',*,*,#322,.T.);
#432=ORIENTED_EDGE('',*,*,#323,.T.);
#433=ORIENTED_EDGE('',*,*,#324,.T.);
#434=ORIENTED_EDGE('',*,*,#320,.F.);
#435=ORIENTED_EDGE('',*,*,#325,.T.);
#436=ORIENTED_EDGE('',*,*,#318,.F.);
#437=ORIENTED_EDGE('',*,*,#326,.T.);
#438=ORIENTED_EDGE('',*,*,#323,.F.);
#439=ORIENTED_EDGE('',*,*,#322,.F.);
#440=ORIENTED_EDGE('',*,*,#319,.F.);
#441=ORIENTED_EDGE('',*,*,#315,.F.);
#442=ORIENTED_EDGE('',*,*,#325,.F.);
#443=ORIENTED_EDGE('',*,*,#324,.F.);
#444=ORIENTED_EDGE('',*,*,#326,.F.);
#445=ORIENTED_EDGE('',*,*,#317,.F.);
#446=ORIENTED_EDGE('',*,*,#321,.F.);
#447=ORIENTED_EDGE('',*,*,#327,.F.);
#448=ORIENTED_EDGE('',*,*,#328,.F.);
#449=ORIENTED_EDGE('',*,*,#329,.F.);
#450=ORIENTED_EDGE('',*,*,#330,.T.);
#451=ORIENTED_EDGE('',*,*,#331,.F.);
#452=ORIENTED_EDGE('',*,*,#330,.F.);
#453=ORIENTED_EDGE('',*,*,#332,.F.);
#454=ORIENTED_EDGE('',*,*,#333,.T.);
#455=ORIENTED_EDGE('',*,*,#334,.F.);
#456=ORIENTED_EDGE('',*,*,#333,.F.);
#457=ORIENTED_EDGE('',*,*,#335,.F.);
#458=ORIENTED_EDGE('',*,*,#336,.T.);
#459=ORIENTED_EDGE('',*,*,#337,.F.);
#460=ORIENTED_EDGE('',*,*,#336,.F.);
#461=ORIENTED_EDGE('',*,*,#338,.F.);
#462=ORIENTED_EDGE('',*,*,#328,.T.);
#463=ORIENTED_EDGE('',*,*,#339,.T.);
#464=ORIENTED_EDGE('',*,*,#340,.T.);
#465=ORIENTED_EDGE('',*,*,#341,.F.);
#466=ORIENTED_EDGE('',*,*,#342,.F.);
#467=ORIENTED_EDGE('',*,*,#335,.T.);
#468=ORIENTED_EDGE('',*,*,#332,.T.);
#469=ORIENTED_EDGE('',*,*,#329,.T.);
#470=ORIENTED_EDGE('',*,*,#338,.T.);
#471=ORIENTED_EDGE('',*,*,#343,.T.);
#472=ORIENTED_EDGE('',*,*,#342,.T.);
#473=ORIENTED_EDGE('',*,*,#344,.F.);
#474=ORIENTED_EDGE('',*,*,#345,.F.);
#475=ORIENTED_EDGE('',*,*,#346,.T.);
#476=ORIENTED_EDGE('',*,*,#345,.T.);
#477=ORIENTED_EDGE('',*,*,#347,.F.);
#478=ORIENTED_EDGE('',*,*,#348,.F.);
#479=ORIENTED_EDGE('',*,*,#334,.T.);
#480=ORIENTED_EDGE('',*,*,#337,.T.);
#481=ORIENTED_EDGE('',*,*,#327,.T.);
#482=ORIENTED_EDGE('',*,*,#331,.T.);
#483=ORIENTED_EDGE('',*,*,#349,.T.);
#484=ORIENTED_EDGE('',*,*,#348,.T.);
#485=ORIENTED_EDGE('',*,*,#350,.F.);
#486=ORIENTED_EDGE('',*,*,#340,.F.);
#487=ORIENTED_EDGE('',*,*,#350,.T.);
#488=ORIENTED_EDGE('',*,*,#347,.T.);
#489=ORIENTED_EDGE('',*,*,#344,.T.);
#490=ORIENTED_EDGE('',*,*,#341,.T.);
#491=ORIENTED_EDGE('',*,*,#349,.F.);
#492=ORIENTED_EDGE('',*,*,#339,.F.);
#493=ORIENTED_EDGE('',*,*,#343,.F.);
#494=ORIENTED_EDGE('',*,*,#346,.F.);
#495=PLANE('',#570);
#496=PLANE('',#571);
#497=PLANE('',#572);
#498=PLANE('',#579);
#499=PLANE('',#580);
#500=PLANE('',#581);
#501=PLANE('',#582);
#502=PLANE('',#583);
#503=PLANE('',#584);
#504=PLANE('',#585);
#505=PLANE('',#586);
#506=PLANE('',#587);
#507=PLANE('',#588);
#508=PLANE('',#589);
#509=PLANE('',#593);
#510=PLANE('',#597);
#511=PLANE('',#598);
#512=PLANE('',#599);
#513=PLANE('',#600);
#514=PLANE('',#601);
#515=PLANE('',#602);
#516=PLANE('',#603);
#517=PLANE('',#604);
#518=PLANE('',#608);
#519=PLANE('',#612);
#520=PLANE('',#613);
#521=ADVANCED_FACE('',(#43),#495,.F.);
#522=ADVANCED_FACE('',(#44),#496,.F.);
#523=ADVANCED_FACE('',(#45),#497,.T.);
#524=ADVANCED_FACE('',(#46),#25,.F.);
#525=ADVANCED_FACE('',(#47),#26,.T.);
#526=ADVANCED_FACE('',(#48),#498,.F.);
#527=ADVANCED_FACE('',(#49),#499,.F.);
#528=ADVANCED_FACE('',(#50),#500,.F.);
#529=ADVANCED_FACE('',(#51),#501,.F.);
#530=ADVANCED_FACE('',(#52),#502,.F.);
#531=ADVANCED_FACE('',(#53,#13),#503,.T.);
#532=ADVANCED_FACE('',(#54),#504,.T.);
#533=ADVANCED_FACE('',(#55,#14),#505,.T.);
#534=ADVANCED_FACE('',(#56),#506,.T.);
#535=ADVANCED_FACE('',(#57),#507,.T.);
#536=ADVANCED_FACE('',(#58),#508,.F.);
#537=ADVANCED_FACE('',(#59),#27,.T.);
#538=ADVANCED_FACE('',(#60),#509,.T.);
#539=ADVANCED_FACE('',(#61),#28,.F.);
#540=ADVANCED_FACE('',(#62),#510,.F.);
#541=ADVANCED_FACE('',(#63),#511,.F.);
#542=ADVANCED_FACE('',(#64),#512,.F.);
#543=ADVANCED_FACE('',(#65),#513,.F.);
#544=ADVANCED_FACE('',(#66),#514,.F.);
#545=ADVANCED_FACE('',(#67),#515,.F.);
#546=ADVANCED_FACE('',(#68),#516,.F.);
#547=ADVANCED_FACE('',(#69,#15),#517,.T.);
#548=ADVANCED_FACE('',(#70),#29,.T.);
#549=ADVANCED_FACE('',(#71,#16),#518,.T.);
#550=ADVANCED_FACE('',(#72),#30,.T.);
#551=ADVANCED_FACE('',(#73),#519,.T.);
#552=ADVANCED_FACE('',(#74),#520,.F.);
#553=CLOSED_SHELL('',(#521,#522,#523,#524,#525,#526));
#554=CLOSED_SHELL('',(#527,#528,#529,#530,#531,#532,#533,#534,#535,#536));
#555=CLOSED_SHELL('',(#537,#538,#539,#540,#541,#542));
#556=CLOSED_SHELL('',(#543,#544,#545,#546,#547,#548,#549,#550,#551,#552));
#557=DERIVED_UNIT_ELEMENT(#559,1.);
#558=DERIVED_UNIT_ELEMENT(#924,-3.);
#559=(
MASS_UNIT()
NAMED_UNIT(*)
SI_UNIT(.KILO.,.GRAM.)
);
#560=DERIVED_UNIT((#557,#558));
#561=MEASURE_REPRESENTATION_ITEM('density measure',
POSITIVE_RATIO_MEASURE(7850.),#560);
#562=PROPERTY_DEFINITION_REPRESENTATION(#567,#564);
#563=PROPERTY_DEFINITION_REPRESENTATION(#568,#565);
#564=REPRESENTATION('material name',(#566),#919);
#565=REPRESENTATION('density',(#561),#919);
#566=DESCRIPTIVE_REPRESENTATION_ITEM('Steel','Steel');
#567=PROPERTY_DEFINITION('material property','material name',#932);
#568=PROPERTY_DEFINITION('material property','density of part',#932);
#569=AXIS2_PLACEMENT_3D('',#764,#614,#615);
#570=AXIS2_PLACEMENT_3D('',#765,#616,#617);
#571=AXIS2_PLACEMENT_3D('',#774,#622,#623);
#572=AXIS2_PLACEMENT_3D('',#783,#628,#629);
#573=AXIS2_PLACEMENT_3D('',#784,#630,#631);
#574=AXIS2_PLACEMENT_3D('',#785,#632,#633);
#575=AXIS2_PLACEMENT_3D('',#786,#634,#635);
#576=AXIS2_PLACEMENT_3D('',#787,#636,#637);
#577=AXIS2_PLACEMENT_3D('',#788,#638,#639);
#578=AXIS2_PLACEMENT_3D('',#789,#640,#641);
#579=AXIS2_PLACEMENT_3D('',#790,#642,#643);
#580=AXIS2_PLACEMENT_3D('',#791,#644,#645);
#581=AXIS2_PLACEMENT_3D('',#800,#650,#651);
#582=AXIS2_PLACEMENT_3D('',#806,#655,#656);
#583=AXIS2_PLACEMENT_3D('',#812,#660,#661);
#584=AXIS2_PLACEMENT_3D('',#815,#664,#665);
#585=AXIS2_PLACEMENT_3D('',#824,#670,#671);
#586=AXIS2_PLACEMENT_3D('',#830,#675,#676);
#587=AXIS2_PLACEMENT_3D('',#836,#680,#681);
#588=AXIS2_PLACEMENT_3D('',#839,#684,#685);
#589=AXIS2_PLACEMENT_3D('',#840,#686,#687);
#590=AXIS2_PLACEMENT_3D('',#841,#688,#689);
#591=AXIS2_PLACEMENT_3D('',#846,#691,#692);
#592=AXIS2_PLACEMENT_3D('',#849,#694,#695);
#593=AXIS2_PLACEMENT_3D('',#850,#696,#697);
#594=AXIS2_PLACEMENT_3D('',#854,#699,#700);
#595=AXIS2_PLACEMENT_3D('',#856,#702,#703);
#596=AXIS2_PLACEMENT_3D('',#860,#705,#706);
#597=AXIS2_PLACEMENT_3D('',#862,#708,#709);
#598=AXIS2_PLACEMENT_3D('',#865,#712,#713);
#599=AXIS2_PLACEMENT_3D('',#866,#714,#715);
#600=AXIS2_PLACEMENT_3D('',#867,#716,#717);
#601=AXIS2_PLACEMENT_3D('',#876,#722,#723);
#602=AXIS2_PLACEMENT_3D('',#882,#727,#728);
#603=AXIS2_PLACEMENT_3D('',#888,#732,#733);
#604=AXIS2_PLACEMENT_3D('',#891,#736,#737);
#605=AXIS2_PLACEMENT_3D('',#900,#742,#743);
#606=AXIS2_PLACEMENT_3D('',#902,#744,#745);
#607=AXIS2_PLACEMENT_3D('',#904,#746,#747);
#608=AXIS2_PLACEMENT_3D('',#906,#749,#750);
#609=AXIS2_PLACEMENT_3D('',#912,#754,#755);
#610=AXIS2_PLACEMENT_3D('',#913,#756,#757);
#611=AXIS2_PLACEMENT_3D('',#914,#758,#759);
#612=AXIS2_PLACEMENT_3D('',#915,#760,#761);
#613=AXIS2_PLACEMENT_3D('',#916,#762,#763);
#614=DIRECTION('axis',(0.,0.,1.));
#615=DIRECTION('refdir',(1.,0.,0.));
#616=DIRECTION('center_axis',(-1.74838271594513E-16,1.,0.));
#617=DIRECTION('ref_axis',(-1.,-1.74838271594513E-16,0.));
#618=DIRECTION('',(0.,0.,-1.));
#619=DIRECTION('',(1.,1.74838271594513E-16,0.));
#620=DIRECTION('',(0.,0.,1.));
#621=DIRECTION('',(-1.,-1.74838271594513E-16,0.));
#622=DIRECTION('center_axis',(-1.74838271594513E-16,1.,0.));
#623=DIRECTION('ref_axis',(-1.,-1.74838271594513E-16,0.));
#624=DIRECTION('',(0.,0.,1.));
#625=DIRECTION('',(-1.,-1.74838271594513E-16,0.));
#626=DIRECTION('',(0.,0.,-1.));
#627=DIRECTION('',(1.,1.74838271594513E-16,0.));
#628=DIRECTION('center_axis',(0.,0.,1.));
#629=DIRECTION('ref_axis',(-1.,0.,0.));
#630=DIRECTION('center_axis',(0.,0.,1.));
#631=DIRECTION('ref_axis',(-1.,0.,0.));
#632=DIRECTION('center_axis',(0.,0.,-1.));
#633=DIRECTION('ref_axis',(-1.,0.,0.));
#634=DIRECTION('center_axis',(0.,0.,1.));
#635=DIRECTION('ref_axis',(1.83697019872103E-16,1.,0.));
#636=DIRECTION('center_axis',(0.,0.,-1.));
#637=DIRECTION('ref_axis',(-1.,0.,0.));
#638=DIRECTION('center_axis',(0.,0.,1.));
#639=DIRECTION('ref_axis',(1.83697019872103E-16,1.,0.));
#640=DIRECTION('center_axis',(0.,0.,1.));
#641=DIRECTION('ref_axis',(-1.,0.,0.));
#642=DIRECTION('center_axis',(0.,0.,1.));
#643=DIRECTION('ref_axis',(-1.,0.,0.));
#644=DIRECTION('center_axis',(-1.,0.,0.));
#645=DIRECTION('ref_axis',(0.,0.,1.));
#646=DIRECTION('',(0.,0.,-1.));
#647=DIRECTION('',(0.,1.,0.));
#648=DIRECTION('',(0.,0.,1.));
#649=DIRECTION('',(0.,1.,0.));
#650=DIRECTION('center_axis',(0.,0.,-1.));
#651=DIRECTION('ref_axis',(-1.,-2.67189074468958E-24,0.));
#652=DIRECTION('',(1.,1.74838271594513E-16,0.));
#653=DIRECTION('',(-1.,0.,0.));
#654=DIRECTION('',(0.,1.,0.));
#655=DIRECTION('center_axis',(1.,0.,0.));
#656=DIRECTION('ref_axis',(0.,0.,-1.));
#657=DIRECTION('',(0.,0.,1.));
#658=DIRECTION('',(0.,0.,-1.));
#659=DIRECTION('',(0.,1.,0.));
#660=DIRECTION('center_axis',(0.,0.,1.));
#661=DIRECTION('ref_axis',(1.,2.67189074468958E-24,0.));
#662=DIRECTION('',(-1.,-1.74838271594513E-16,0.));
#663=DIRECTION('',(1.,0.,0.));
#664=DIRECTION('center_axis',(-1.74838271594513E-16,1.,0.));
#665=DIRECTION('ref_axis',(-1.,-1.74838271594513E-16,0.));
#666=DIRECTION('',(-1.,-1.74838271594513E-16,0.));
#667=DIRECTION('',(0.,0.,1.));
#668=DIRECTION('',(-1.,-1.74838271594513E-16,0.));
#669=DIRECTION('',(0.,0.,1.));
#670=DIRECTION('center_axis',(1.,0.,0.));
#671=DIRECTION('ref_axis',(0.,1.,0.));
#672=DIRECTION('',(0.,1.,0.));
#673=DIRECTION('',(0.,1.,0.));
#674=DIRECTION('',(0.,0.,1.));
#675=DIRECTION('center_axis',(0.,-1.,0.));
#676=DIRECTION('ref_axis',(1.,0.,0.));
#677=DIRECTION('',(1.,0.,0.));
#678=DIRECTION('',(1.,0.,0.));
#679=DIRECTION('',(0.,0.,1.));
#680=DIRECTION('center_axis',(-1.,0.,0.));
#681=DIRECTION('ref_axis',(0.,-1.,0.));
#682=DIRECTION('',(0.,-1.,0.));
#683=DIRECTION('',(0.,-1.,0.));
#684=DIRECTION('center_axis',(0.,0.,1.));
#685=DIRECTION('ref_axis',(1.,0.,0.));
#686=DIRECTION('center_axis',(0.,0.,1.));
#687=DIRECTION('ref_axis',(-1.,0.,0.));
#688=DIRECTION('center_axis',(0.,0.,1.));
#689=DIRECTION('ref_axis',(-1.,0.,0.));
#690=DIRECTION('',(0.,0.,1.));
#691=DIRECTION('center_axis',(0.,0.,1.));
#692=DIRECTION('ref_axis',(-1.,0.,0.));
#693=DIRECTION('',(0.,0.,-1.));
#694=DIRECTION('center_axis',(0.,0.,1.));
#695=DIRECTION('ref_axis',(-1.,0.,0.));
#696=DIRECTION('center_axis',(0.,0.,1.));
#697=DIRECTION('ref_axis',(-1.,0.,0.));
#698=DIRECTION('',(-1.,0.,0.));
#699=DIRECTION('center_axis',(0.,0.,-1.));
#700=DIRECTION('ref_axis',(-1.,0.,0.));
#701=DIRECTION('',(-1.,0.,0.));
#702=DIRECTION('center_axis',(0.,0.,1.));
#703=DIRECTION('ref_axis',(-1.,0.,0.));
#704=DIRECTION('',(0.,0.,-1.));
#705=DIRECTION('center_axis',(0.,0.,-1.));
#706=DIRECTION('ref_axis',(-1.,0.,0.));
#707=DIRECTION('',(0.,0.,1.));
#708=DIRECTION('center_axis',(0.,0.,1.));
#709=DIRECTION('ref_axis',(-1.,0.,0.));
#710=DIRECTION('',(1.,0.,0.));
#711=DIRECTION('',(1.,0.,0.));
#712=DIRECTION('center_axis',(0.,-1.,0.));
#713=DIRECTION('ref_axis',(1.,0.,0.));
#714=DIRECTION('center_axis',(0.,-1.,0.));
#715=DIRECTION('ref_axis',(1.,0.,0.));
#716=DIRECTION('center_axis',(-1.,0.,0.));
#717=DIRECTION('ref_axis',(0.,0.,1.));
#718=DIRECTION('',(0.,0.,-1.));
#719=DIRECTION('',(0.,1.,0.));
#720=DIRECTION('',(0.,0.,1.));
#721=DIRECTION('',(0.,1.,0.));
#722=DIRECTION('center_axis',(0.,0.,-1.));
#723=DIRECTION('ref_axis',(-1.,-2.67189074468958E-24,0.));
#724=DIRECTION('',(1.,1.74838271594513E-16,0.));
#725=DIRECTION('',(-1.,0.,0.));
#726=DIRECTION('',(0.,1.,0.));
#727=DIRECTION('center_axis',(1.,0.,0.));
#728=DIRECTION('ref_axis',(0.,0.,-1.));
#729=DIRECTION('',(0.,0.,1.));
#730=DIRECTION('',(0.,0.,-1.));
#731=DIRECTION('',(0.,1.,0.));
#732=DIRECTION('center_axis',(0.,0.,1.));
#733=DIRECTION('ref_axis',(1.,2.67189074468958E-24,0.));
#734=DIRECTION('',(-1.,-1.74838271594513E-16,0.));
#735=DIRECTION('',(1.,0.,0.));
#736=DIRECTION('center_axis',(0.,-1.,0.));
#737=DIRECTION('ref_axis',(1.,0.,0.));
#738=DIRECTION('',(1.,0.,0.));
#739=DIRECTION('',(0.,0.,1.));
#740=DIRECTION('',(1.,0.,0.));
#741=DIRECTION('',(0.,0.,1.));
#742=DIRECTION('center_axis',(0.,0.,1.));
#743=DIRECTION('ref_axis',(-1.,0.,0.));
#744=DIRECTION('center_axis',(0.,0.,1.));
#745=DIRECTION('ref_axis',(-1.,0.,0.));
#746=DIRECTION('center_axis',(0.,0.,1.));
#747=DIRECTION('ref_axis',(-1.,0.,0.));
#748=DIRECTION('',(0.,0.,1.));
#749=DIRECTION('center_axis',(-1.74838271594513E-16,1.,0.));
#750=DIRECTION('ref_axis',(-1.,-1.74838271594513E-16,0.));
#751=DIRECTION('',(-1.,-1.74838271594513E-16,0.));
#752=DIRECTION('',(-1.,-1.74838271594513E-16,0.));
#753=DIRECTION('',(0.,0.,1.));
#754=DIRECTION('center_axis',(0.,0.,1.));
#755=DIRECTION('ref_axis',(-1.,0.,0.));
#756=DIRECTION('center_axis',(0.,0.,1.));
#757=DIRECTION('ref_axis',(-1.,0.,0.));
#758=DIRECTION('center_axis',(0.,0.,1.));
#759=DIRECTION('ref_axis',(-1.,0.,0.));
#760=DIRECTION('center_axis',(0.,0.,1.));
#761=DIRECTION('ref_axis',(-1.,0.,0.));
#762=DIRECTION('center_axis',(0.,0.,1.));
#763=DIRECTION('ref_axis',(-1.,0.,0.));
#764=CARTESIAN_POINT('',(0.,0.,0.));
#765=CARTESIAN_POINT('Origin',(1.97417628054943,-1.71062997710986,-45.041023455456));
#766=CARTESIAN_POINT('',(-1.0143773013378,-1.71062997710986,-44.541023455456));
#767=CARTESIAN_POINT('',(-1.0143773013378,-1.71062997710986,-45.041023455456));
#768=CARTESIAN_POINT('',(-1.0143773013378,-1.71062997710986,-45.041023455456));
#769=CARTESIAN_POINT('',(-1.16118639689612,-1.71062997710986,-44.541023455456));
#770=CARTESIAN_POINT('',(0.987088140274717,-1.71062997710986,-44.541023455456));
#771=CARTESIAN_POINT('',(-1.16118639689612,-1.71062997710986,-45.041023455456));
#772=CARTESIAN_POINT('',(-1.16118639689612,-1.71062997710986,-45.041023455456));
#773=CARTESIAN_POINT('',(0.987088140274717,-1.71062997710986,-45.041023455456));
#774=CARTESIAN_POINT('Origin',(1.97417628054943,-1.71062997710986,-45.041023455456));
#775=CARTESIAN_POINT('',(1.0143773013378,-1.71062997710986,-45.041023455456));
#776=CARTESIAN_POINT('',(1.0143773013378,-1.71062997710986,-44.541023455456));
#777=CARTESIAN_POINT('',(1.0143773013378,-1.71062997710986,-45.041023455456));
#778=CARTESIAN_POINT('',(1.16118639689612,-1.71062997710986,-45.041023455456));
#779=CARTESIAN_POINT('',(0.987088140274717,-1.71062997710986,-45.041023455456));
#780=CARTESIAN_POINT('',(1.16118639689612,-1.71062997710986,-44.541023455456));
#781=CARTESIAN_POINT('',(1.16118639689612,-1.71062997710986,-45.041023455456));
#782=CARTESIAN_POINT('',(0.987088140274717,-1.71062997710986,-44.541023455456));
#783=CARTESIAN_POINT('Origin',(0.,0.,-44.541023455456));
#784=CARTESIAN_POINT('Origin',(0.,0.,-44.541023455456));
#785=CARTESIAN_POINT('Origin',(0.,0.,-44.541023455456));
#786=CARTESIAN_POINT('Origin',(0.,0.,-45.041023455456));
#787=CARTESIAN_POINT('Origin',(0.,0.,-45.041023455456));
#788=CARTESIAN_POINT('Origin',(0.,0.,-45.041023455456));
#789=CARTESIAN_POINT('Origin',(0.,0.,-45.041023455456));
#790=CARTESIAN_POINT('Origin',(0.,0.,-45.041023455456));
#791=CARTESIAN_POINT('Origin',(-0.181335372576547,-1.78937013459018,-44.8642325815953));
#792=CARTESIAN_POINT('',(-0.181335372576547,-1.71062997710986,-44.7167025604987));
#793=CARTESIAN_POINT('',(-0.181335372576547,-1.71062997710986,-44.8642325815953));
#794=CARTESIAN_POINT('',(-0.181335372576547,-1.71062997710986,-44.9526280185256));
#795=CARTESIAN_POINT('',(-0.181335372576547,-1.78937013459018,-44.7167025604987));
#796=CARTESIAN_POINT('',(-0.181335372576547,-1.78937013459018,-44.7167025604987));
#797=CARTESIAN_POINT('',(-0.181335372576547,-1.78937013459018,-44.8642325815953));
#798=CARTESIAN_POINT('',(-0.181335372576547,-1.78937013459018,-44.9526280185256));
#799=CARTESIAN_POINT('',(-0.181335372576547,-1.78937013459018,-44.8642325815953));
#800=CARTESIAN_POINT('Origin',(0.128321248365707,-1.78937013459018,-44.8642325815953));
#801=CARTESIAN_POINT('',(0.128321248365707,-1.71062997710986,-44.8642325815953));
#802=CARTESIAN_POINT('',(1.05124876445757,-1.71062997710986,-44.8642325815953));
#803=CARTESIAN_POINT('',(0.128321248365707,-1.78937013459018,-44.8642325815953));
#804=CARTESIAN_POINT('',(-0.94875123554243,-1.78937013459018,-44.8642325815953));
#805=CARTESIAN_POINT('',(0.128321248365707,-1.78937013459018,-44.8642325815953));
#806=CARTESIAN_POINT('Origin',(0.128321248365707,-1.78937013459018,-44.7167025604987));
#807=CARTESIAN_POINT('',(0.128321248365707,-1.71062997710986,-44.7167025604987));
#808=CARTESIAN_POINT('',(0.128321248365707,-1.71062997710986,-44.8788630079773));
#809=CARTESIAN_POINT('',(0.128321248365707,-1.78937013459018,-44.7167025604987));
#810=CARTESIAN_POINT('',(0.128321248365707,-1.78937013459018,-44.8788630079773));
#811=CARTESIAN_POINT('',(0.128321248365707,-1.78937013459018,-44.7167025604987));
#812=CARTESIAN_POINT('Origin',(-0.181335372576547,-1.78937013459018,-44.7167025604987));
#813=CARTESIAN_POINT('',(0.896420453986443,-1.71062997710986,-44.7167025604987));
#814=CARTESIAN_POINT('',(-1.10357954601356,-1.78937013459018,-44.7167025604987));
#815=CARTESIAN_POINT('Origin',(1.97417628054943,-1.71062997710986,-45.041023455456));
#816=CARTESIAN_POINT('',(1.97417628054943,-1.71062997710986,-45.041023455456));
#817=CARTESIAN_POINT('',(-2.02582371945057,-1.71062997710986,-45.041023455456));
#818=CARTESIAN_POINT('',(1.97417628054943,-1.71062997710986,-45.041023455456));
#819=CARTESIAN_POINT('',(-2.02582371945057,-1.71062997710986,-44.541023455456));
#820=CARTESIAN_POINT('',(-2.02582371945057,-1.71062997710986,-45.041023455456));
#821=CARTESIAN_POINT('',(1.97417628054943,-1.71062997710986,-44.541023455456));
#822=CARTESIAN_POINT('',(1.97417628054943,-1.71062997710986,-44.541023455456));
#823=CARTESIAN_POINT('',(1.97417628054943,-1.71062997710986,-45.041023455456));
#824=CARTESIAN_POINT('Origin',(1.97417628054943,-1.78937013459018,-45.041023455456));
#825=CARTESIAN_POINT('',(1.97417628054943,-1.78937013459018,-45.041023455456));
#826=CARTESIAN_POINT('',(1.97417628054943,-1.78937013459018,-45.041023455456));
#827=CARTESIAN_POINT('',(1.97417628054943,-1.78937013459018,-44.541023455456));
#828=CARTESIAN_POINT('',(1.97417628054943,-1.78937013459018,-44.541023455456));
#829=CARTESIAN_POINT('',(1.97417628054943,-1.78937013459018,-45.041023455456));
#830=CARTESIAN_POINT('Origin',(-2.02582371945057,-1.78937013459018,-45.041023455456));
#831=CARTESIAN_POINT('',(-2.02582371945057,-1.78937013459018,-45.041023455456));
#832=CARTESIAN_POINT('',(-2.02582371945057,-1.78937013459018,-45.041023455456));
#833=CARTESIAN_POINT('',(-2.02582371945057,-1.78937013459018,-44.541023455456));
#834=CARTESIAN_POINT('',(-2.02582371945057,-1.78937013459018,-44.541023455456));
#835=CARTESIAN_POINT('',(-2.02582371945057,-1.78937013459018,-45.041023455456));
#836=CARTESIAN_POINT('Origin',(-2.02582371945057,-1.71062997710986,-45.041023455456));
#837=CARTESIAN_POINT('',(-2.02582371945057,-1.71062997710986,-45.041023455456));
#838=CARTESIAN_POINT('',(-2.02582371945057,-1.71062997710986,-44.541023455456));
#839=CARTESIAN_POINT('Origin',(-0.0258237194505665,-1.75000005585002,-44.541023455456));
#840=CARTESIAN_POINT('Origin',(-0.0258237194505665,-1.75000005585002,-45.041023455456));
#841=CARTESIAN_POINT('Origin',(0.,0.,-45.041023455456));
#842=CARTESIAN_POINT('',(1.03574286787804,-1.78937013459018,-45.041023455456));
#843=CARTESIAN_POINT('',(1.03574286787804,-1.78937013459018,-44.541023455456));
#844=CARTESIAN_POINT('',(1.03574286787804,-1.78937013459018,-45.041023455456));
#845=CARTESIAN_POINT('',(-1.03574286787804,-1.78937013459018,-44.541023455456));
#846=CARTESIAN_POINT('Origin',(0.,0.,-44.541023455456));
#847=CARTESIAN_POINT('',(-1.03574286787804,-1.78937013459018,-45.041023455456));
#848=CARTESIAN_POINT('',(-1.03574286787804,-1.78937013459018,-45.041023455456));
#849=CARTESIAN_POINT('Origin',(0.,0.,-45.041023455456));
#850=CARTESIAN_POINT('Origin',(0.,0.,-44.541023455456));
#851=CARTESIAN_POINT('',(0.86796932520279,-1.78937013459018,-44.541023455456));
#852=CARTESIAN_POINT('',(-1.01291185972528,-1.78937013459018,-44.541023455456));
#853=CARTESIAN_POINT('',(-0.86796932520279,-1.78937013459018,-44.541023455456));
#854=CARTESIAN_POINT('Origin',(0.,0.,-44.541023455456));
#855=CARTESIAN_POINT('',(-1.01291185972528,-1.78937013459018,-44.541023455456));
#856=CARTESIAN_POINT('Origin',(0.,0.,-45.041023455456));
#857=CARTESIAN_POINT('',(0.86796932520279,-1.78937013459018,-45.041023455456));
#858=CARTESIAN_POINT('',(0.86796932520279,-1.78937013459018,-45.041023455456));
#859=CARTESIAN_POINT('',(-0.86796932520279,-1.78937013459018,-45.041023455456));
#860=CARTESIAN_POINT('Origin',(0.,0.,-45.041023455456));
#861=CARTESIAN_POINT('',(-0.86796932520279,-1.78937013459018,-45.041023455456));
#862=CARTESIAN_POINT('Origin',(0.,0.,-45.041023455456));
#863=CARTESIAN_POINT('',(-1.01291185972528,-1.78937013459018,-45.041023455456));
#864=CARTESIAN_POINT('',(-1.01291185972528,-1.78937013459018,-45.041023455456));
#865=CARTESIAN_POINT('Origin',(-2.02582371945057,-1.78937013459018,-45.041023455456));
#866=CARTESIAN_POINT('Origin',(-2.02582371945057,-1.78937013459018,-45.041023455456));
#867=CARTESIAN_POINT('Origin',(-0.181335372576547,-1.78937013459018,-44.8642325815953));
#868=CARTESIAN_POINT('',(-0.181335372576547,-1.71062997710986,-44.7167025604987));
#869=CARTESIAN_POINT('',(-0.181335372576547,-1.71062997710986,-44.8642325815953));
#870=CARTESIAN_POINT('',(-0.181335372576547,-1.71062997710986,-44.9526280185256));
#871=CARTESIAN_POINT('',(-0.181335372576547,-1.78937013459018,-44.7167025604987));
#872=CARTESIAN_POINT('',(-0.181335372576547,-1.78937013459018,-44.7167025604987));
#873=CARTESIAN_POINT('',(-0.181335372576547,-1.78937013459018,-44.8642325815953));
#874=CARTESIAN_POINT('',(-0.181335372576547,-1.78937013459018,-44.9526280185256));
#875=CARTESIAN_POINT('',(-0.181335372576547,-1.78937013459018,-44.8642325815953));
#876=CARTESIAN_POINT('Origin',(0.128321248365707,-1.78937013459018,-44.8642325815953));
#877=CARTESIAN_POINT('',(0.128321248365707,-1.71062997710986,-44.8642325815953));
#878=CARTESIAN_POINT('',(0.644753822630915,-1.71062997710986,-44.8642325815953));
#879=CARTESIAN_POINT('',(0.128321248365707,-1.78937013459018,-44.8642325815953));
#880=CARTESIAN_POINT('',(-0.453710809756164,-1.78937013459018,-44.8642325815953));
#881=CARTESIAN_POINT('',(0.128321248365707,-1.78937013459018,-44.8642325815953));
#882=CARTESIAN_POINT('Origin',(0.128321248365707,-1.78937013459018,-44.7167025604987));
#883=CARTESIAN_POINT('',(0.128321248365707,-1.71062997710986,-44.7167025604987));
#884=CARTESIAN_POINT('',(0.128321248365707,-1.71062997710986,-44.8788630079773));
#885=CARTESIAN_POINT('',(0.128321248365707,-1.78937013459018,-44.7167025604987));
#886=CARTESIAN_POINT('',(0.128321248365707,-1.78937013459018,-44.8788630079773));
#887=CARTESIAN_POINT('',(0.128321248365707,-1.78937013459018,-44.7167025604987));
#888=CARTESIAN_POINT('Origin',(-0.181335372576547,-1.78937013459018,-44.7167025604987));
#889=CARTESIAN_POINT('',(0.489925512159788,-1.71062997710986,-44.7167025604987));
#890=CARTESIAN_POINT('',(-0.608539120227292,-1.78937013459018,-44.7167025604987));
#891=CARTESIAN_POINT('Origin',(-1.03574286787804,-1.78937013459018,-45.041023455456));
#892=CARTESIAN_POINT('',(-1.03574286787804,-1.78937013459018,-45.041023455456));
#893=CARTESIAN_POINT('',(1.03574286787804,-1.78937013459018,-45.041023455456));
#894=CARTESIAN_POINT('',(-2.02582371945057,-1.78937013459018,-45.041023455456));
#895=CARTESIAN_POINT('',(1.03574286787804,-1.78937013459018,-44.541023455456));
#896=CARTESIAN_POINT('',(1.03574286787804,-1.78937013459018,-45.041023455456));
#897=CARTESIAN_POINT('',(-1.03574286787804,-1.78937013459018,-44.541023455456));
#898=CARTESIAN_POINT('',(-2.02582371945057,-1.78937013459018,-44.541023455456));
#899=CARTESIAN_POINT('',(-1.03574286787804,-1.78937013459018,-45.041023455456));
#900=CARTESIAN_POINT('Origin',(0.,0.,-45.041023455456));
#901=CARTESIAN_POINT('',(-1.16118639689612,-1.71062997710986,-45.041023455456));
#902=CARTESIAN_POINT('Origin',(0.,0.,-45.041023455456));
#903=CARTESIAN_POINT('',(-1.16118639689612,-1.71062997710986,-44.541023455456));
#904=CARTESIAN_POINT('Origin',(0.,0.,-44.541023455456));
#905=CARTESIAN_POINT('',(-1.16118639689612,-1.71062997710986,-45.041023455456));
#906=CARTESIAN_POINT('Origin',(1.16118639689612,-1.71062997710986,-45.041023455456));
#907=CARTESIAN_POINT('',(1.16118639689612,-1.71062997710986,-45.041023455456));
#908=CARTESIAN_POINT('',(1.97417628054943,-1.71062997710986,-45.041023455456));
#909=CARTESIAN_POINT('',(1.16118639689612,-1.71062997710986,-44.541023455456));
#910=CARTESIAN_POINT('',(1.97417628054943,-1.71062997710986,-44.541023455456));
#911=CARTESIAN_POINT('',(1.16118639689612,-1.71062997710986,-45.041023455456));
#912=CARTESIAN_POINT('Origin',(0.,0.,-45.041023455456));
#913=CARTESIAN_POINT('Origin',(0.,0.,-45.041023455456));
#914=CARTESIAN_POINT('Origin',(0.,0.,-44.541023455456));
#915=CARTESIAN_POINT('Origin',(5.24514814783538E-16,-1.75000005585002,-44.541023455456));
#916=CARTESIAN_POINT('Origin',(5.24514814783538E-16,-1.75000005585002,-45.041023455456));
#917=UNCERTAINTY_MEASURE_WITH_UNIT(LENGTH_MEASURE(0.000393700787401575),
#922,'DISTANCE_ACCURACY_VALUE',
'Maximum model space distance between geometric entities at asserted c
onnectivities');
#918=UNCERTAINTY_MEASURE_WITH_UNIT(LENGTH_MEASURE(0.000393700787401575),
#922,'DISTANCE_ACCURACY_VALUE',
'Maximum model space distance between geometric entities at asserted c
onnectivities');
#919=(
GEOMETRIC_REPRESENTATION_CONTEXT(3)
GLOBAL_UNCERTAINTY_ASSIGNED_CONTEXT((#917))
GLOBAL_UNIT_ASSIGNED_CONTEXT((#922,#926,#927))
REPRESENTATION_CONTEXT('','3D')
);
#920=(
GEOMETRIC_REPRESENTATION_CONTEXT(3)
GLOBAL_UNCERTAINTY_ASSIGNED_CONTEXT((#918))
GLOBAL_UNIT_ASSIGNED_CONTEXT((#922,#926,#927))
REPRESENTATION_CONTEXT('','3D')
);
#921=DIMENSIONAL_EXPONENTS(1.,0.,0.,0.,0.,0.,0.);
#922=(
CONVERSION_BASED_UNIT('inch',#925)
LENGTH_UNIT()
NAMED_UNIT(#921)
);
#923=(
LENGTH_UNIT()
NAMED_UNIT(*)
SI_UNIT(.MILLI.,.METRE.)
);
#924=(
LENGTH_UNIT()
NAMED_UNIT(*)
SI_UNIT($,.METRE.)
);
#925=LENGTH_MEASURE_WITH_UNIT(LENGTH_MEASURE(25.4),#923);
#926=(
NAMED_UNIT(*)
PLANE_ANGLE_UNIT()
SI_UNIT($,.RADIAN.)
);
#927=(
NAMED_UNIT(*)
SI_UNIT($,.STERADIAN.)
SOLID_ANGLE_UNIT()
);
#928=SHAPE_DEFINITION_REPRESENTATION(#929,#930);
#929=PRODUCT_DEFINITION_SHAPE('',$,#932);
#930=SHAPE_REPRESENTATION('',(#569),#919);
#931=PRODUCT_DEFINITION_CONTEXT('part definition',#936,'design');
#932=PRODUCT_DEFINITION('2026-08-17-23-02-52-247','tempcut_ring',#933,#931);
#933=PRODUCT_DEFINITION_FORMATION('',$,#938);
#934=PRODUCT_RELATED_PRODUCT_CATEGORY('tempcut_ring','tempcut_ring',(#938));
#935=APPLICATION_PROTOCOL_DEFINITION('international standard',
'automotive_design',2009,#936);
#936=APPLICATION_CONTEXT(
'Core Data for Automotive Mechanical Design Process');
#937=PRODUCT_CONTEXT('part definition',#936,'mechanical');
#938=PRODUCT('2026-08-17-23-02-52-247','tempcut_ring',$,(#937));
#939=PRESENTATION_STYLE_ASSIGNMENT((#940));
#940=SURFACE_STYLE_USAGE(.BOTH.,#941);
#941=SURFACE_SIDE_STYLE('',(#942));
#942=SURFACE_STYLE_FILL_AREA(#943);
#943=FILL_AREA_STYLE('Steel - Satin',(#944));
#944=FILL_AREA_STYLE_COLOUR('Steel - Satin',#945);
#945=COLOUR_RGB('Steel - Satin',0.627450980392157,0.627450980392157,0.627450980392157);
ENDSEC;
END-ISO-10303-21;
